<?xml version="1.0" encoding="utf-8"?>
<!-- Generator: Adobe Illustrator 24.1.2, SVG Export Plug-In . SVG Version: 6.00 Build 0)  -->
<svg version="1.1" id="Layer_1" xmlns="http://www.w3.org/2000/svg" xmlns:xlink="http://www.w3.org/1999/xlink" x="0px" y="0px"
	 viewBox="0 0 27 25" style="enable-background:new 0 0 27 25;" xml:space="preserve">
<style type="text/css">
	.st0{fill:#FFFFFF;}
</style>
<path class="st0" d="M22,23.3h-0.1c-0.6,0-1.1-0.5-1.2-1.1c0-0.7,0.4-1.3,1.1-1.3c0,0,0.1,0,0.1,0c0.6,0,1.1,0.5,1.2,1.1
	c0,0.2,0,0.6-0.3,0.9l0,0l0,0C22.5,23.1,22.3,23.2,22,23.3z M8.2,23.3C7.6,23.3,7,22.7,7,22c0-0.7,0.5-1.2,1.2-1.2
	c0.7,0,1.2,0.5,1.2,1.2C9.4,22.7,8.9,23.3,8.2,23.3z"/>
<path class="st0" d="M21.9,22.3C21.9,22.3,21.9,22.2,21.9,22.3c0.1-0.1,0.1-0.1,0.1-0.1c0,0,0-0.1,0-0.2c0-0.1-0.1-0.2-0.2-0.2
	c0,0,0,0,0,0c-0.1,0-0.2,0.1-0.2,0.2C21.7,22.2,21.8,22.3,21.9,22.3L21.9,22.3z M8.2,22.3c0.1,0,0.2-0.1,0.2-0.2
	c0-0.1-0.1-0.2-0.2-0.2C8.1,21.8,8,21.9,8,22C8,22.2,8.1,22.3,8.2,22.3z M22,24.3c0,0-0.1,0-0.2,0c-1.1,0-2.1-0.9-2.2-2.1
	c-0.1-1.2,0.8-2.3,2-2.4c0,0,0.1,0,0.1,0c1.1,0,2.1,0.9,2.2,2.1c0,0.6-0.1,1.2-0.5,1.6C23.1,24,22.6,24.2,22,24.3z M8.2,24.3
	C7,24.3,6,23.3,6,22c0-1.2,1-2.2,2.2-2.2c1.2,0,2.2,1,2.2,2.2C10.4,23.3,9.4,24.3,8.2,24.3z M21.2,17.4H9.1c-0.4,0-0.8-0.3-0.9-0.7
	L4.3,2.2H1.5c-0.5,0-1-0.4-1-1c0-0.5,0.4-1,1-1H5c0.4,0,0.8,0.3,0.9,0.7l3.9,14.4h10.7l3.6-8.3H12.3c-0.5,0-1-0.4-1-1
	c0-0.5,0.4-1,1-1h13.3c0.3,0,0.6,0.2,0.8,0.4c0.2,0.3,0.2,0.6,0.1,0.9l-4.4,10.3C21.9,17.2,21.6,17.4,21.2,17.4z"/>
<g>
	<path class="st0" d="M21.9,22.3C21.9,22.3,21.9,22.2,21.9,22.3c0.1-0.1,0.1-0.1,0.1-0.1c0,0,0-0.1,0-0.2c0-0.1-0.1-0.2-0.2-0.2
		c0,0,0,0,0,0c-0.1,0-0.2,0.1-0.2,0.2C21.7,22.2,21.8,22.3,21.9,22.3L21.9,22.3z"/>
</g>
<g>
	<path class="st0" d="M8.2,22.3c0.1,0,0.2-0.1,0.2-0.2c0-0.1-0.1-0.2-0.2-0.2C8.1,21.8,8,21.9,8,22C8,22.2,8.1,22.3,8.2,22.3z"/>
</g>
</svg>
