<?xml version="1.0" encoding="utf-8"?>
<!-- Generator: Adobe Illustrator 24.1.2, SVG Export Plug-In . SVG Version: 6.00 Build 0)  -->
<svg version="1.1" id="Layer_1" xmlns="http://www.w3.org/2000/svg" xmlns:xlink="http://www.w3.org/1999/xlink" x="0px" y="0px"
	 viewBox="0 0 50 35" style="enable-background:new 0 0 50 35;" xml:space="preserve">
<style type="text/css">
	.st0{fill:#F16D7F;}
</style>
<path class="st0" d="M33.5,29.9h-17c-0.2,1.4-1,2.7-2.1,3.7c-1.1,0.9-2.5,1.5-4,1.5c-1.5,0-2.9-0.5-4-1.5c-1.1-0.9-1.8-2.2-2.1-3.7
	H2.4c-0.5,0-1.1-0.2-1.4-0.6s-0.6-0.9-0.6-1.4V2.1c0-0.5,0.2-1.1,0.6-1.4C1.3,0.2,1.8,0,2.4,0h28c0.5,0,1.1,0.2,1.4,0.6
	c0.4,0.4,0.6,0.9,0.6,1.4v2.1h7.8c0.1,0,0.2,0,0.3,0C43,4.4,44.3,5.7,45.6,8l3.9,6.7c0.1,0.2,0.1,0.3,0.1,0.5v13.7
	c0,0.3-0.1,0.5-0.3,0.7c-0.2,0.2-0.5,0.3-0.7,0.3h-3.1c-0.2,1.4-1,2.7-2.1,3.7c-1.1,0.9-2.5,1.5-4,1.5c-1.5,0-2.9-0.5-4-1.5
	C34.5,32.6,33.7,31.3,33.5,29.9L33.5,29.9z M35.5,28.8c0,0.8,0.3,1.6,0.7,2.2c0.5,0.7,1.1,1.2,1.8,1.5c0.7,0.3,1.6,0.4,2.3,0.2
	c0.8-0.2,1.5-0.6,2.1-1.1c0.6-0.6,0.9-1.3,1.1-2.1c0.2-0.8,0.1-1.6-0.2-2.3c-0.3-0.7-0.8-1.4-1.5-1.8c-0.7-0.4-1.5-0.7-2.3-0.7
	c-1.1,0-2.1,0.4-2.9,1.2C35.9,26.7,35.5,27.7,35.5,28.8z M6.5,28.8c0,0.8,0.3,1.6,0.7,2.2s1.1,1.2,1.8,1.5c0.7,0.3,1.6,0.4,2.3,0.2
	c0.8-0.2,1.5-0.6,2.1-1.1c0.6-0.6,0.9-1.3,1.1-2.1c0.2-0.8,0.1-1.6-0.2-2.3c-0.3-0.7-0.8-1.4-1.5-1.8c-0.7-0.4-1.5-0.7-2.3-0.7
	c-1.1,0-2.1,0.4-2.9,1.2C6.9,26.7,6.4,27.7,6.5,28.8L6.5,28.8z M45.5,27.8h2.1v-6.2h-3c-0.1,0-0.3,0-0.4-0.1
	c-0.1-0.1-0.2-0.1-0.3-0.2c-0.1-0.1-0.2-0.2-0.2-0.3c-0.1-0.1-0.1-0.3-0.1-0.4v-2c0-0.8,0.3-1.5,0.8-2.1h-7c-0.1,0-0.2,0-0.3,0
	c-0.8-0.1-1.5-0.4-2-1c-0.5-0.6-0.8-1.3-0.8-2.1V8.2c0-0.1,0-0.3,0.1-0.4c0.1-0.1,0.1-0.2,0.2-0.3c0.1-0.1,0.2-0.2,0.3-0.2
	c0.1-0.1,0.3-0.1,0.4-0.1h7.1c-0.4-0.3-0.8-0.6-1.3-0.8c-0.5-0.2-1-0.2-1.5-0.2h-7.3v21.6h1.1c0.2-1.4,1-2.7,2.1-3.7
	c1.1-0.9,2.5-1.5,4-1.5c1.5,0,2.9,0.5,4,1.5C44.6,25.1,45.3,26.4,45.5,27.8L45.5,27.8z M16.5,27.8h13.8V2.1h-28v25.7h2.1
	c0.2-1.4,1-2.7,2.1-3.7c1.1-0.9,2.5-1.5,4-1.5c1.5,0,2.9,0.5,4,1.5C15.6,25.1,16.3,26.4,16.5,27.8L16.5,27.8z M45.6,18.6v1h2v-2h-1
	c-0.3,0-0.5,0.1-0.7,0.3C45.7,18.1,45.6,18.3,45.6,18.6L45.6,18.6z M36.4,13.3c0,0.3,0.1,0.5,0.3,0.7c0.2,0.2,0.5,0.3,0.7,0.3
	c0.1,0,0.1,0,0.2,0H47l-3-5.2h-7.6L36.4,13.3z M36.5,28.8c0-0.8,0.3-1.6,0.9-2.1c0.6-0.6,1.3-0.9,2.1-0.9c0.3,0,0.5,0.1,0.7,0.3
	c0.2,0.2,0.3,0.5,0.3,0.7c0,0.3-0.1,0.5-0.3,0.7c-0.2,0.2-0.5,0.3-0.7,0.3c-0.2,0-0.4,0.1-0.6,0.2c-0.2,0.1-0.3,0.3-0.4,0.4
	c-0.1,0.2-0.1,0.4-0.1,0.6c0,0.2,0.1,0.4,0.3,0.5c0.1,0.1,0.3,0.2,0.5,0.3c0.2,0,0.4,0,0.6-0.1c0.2-0.1,0.3-0.2,0.4-0.4
	c0.1-0.2,0.2-0.4,0.2-0.5c0-0.3,0.1-0.5,0.3-0.7c0.2-0.2,0.4-0.3,0.7-0.3c0.3,0,0.5,0.1,0.7,0.3c0.2,0.2,0.3,0.4,0.3,0.7
	c0,0.8-0.3,1.6-0.9,2.1c-0.6,0.6-1.3,0.9-2.1,0.9c-0.8,0-1.6-0.3-2.1-0.9C36.8,30.4,36.5,29.6,36.5,28.8L36.5,28.8z M7.5,28.8
	c0-0.8,0.3-1.6,0.9-2.1s1.3-0.9,2.1-0.9c0.3,0,0.5,0.1,0.7,0.3c0.2,0.2,0.3,0.5,0.3,0.7c0,0.3-0.1,0.5-0.3,0.7
	c-0.2,0.2-0.5,0.3-0.7,0.3c-0.2,0-0.4,0.1-0.6,0.2c-0.2,0.1-0.3,0.3-0.4,0.4c-0.1,0.2-0.1,0.4-0.1,0.6c0,0.2,0.1,0.4,0.3,0.5
	c0.1,0.1,0.3,0.2,0.5,0.3c0.2,0,0.4,0,0.6-0.1c0.2-0.1,0.3-0.2,0.4-0.4c0.1-0.2,0.2-0.4,0.2-0.5c0-0.3,0.1-0.5,0.3-0.7
	c0.2-0.2,0.4-0.3,0.7-0.3c0.3,0,0.5,0.1,0.7,0.3c0.2,0.2,0.3,0.4,0.3,0.7c0,0.8-0.3,1.6-0.9,2.1c-0.6,0.6-1.3,0.9-2.1,0.9
	c-0.8,0-1.6-0.3-2.1-0.9C7.8,30.4,7.5,29.6,7.5,28.8L7.5,28.8z M5.5,6.2c-0.3,0-0.5-0.1-0.7-0.3C4.6,5.7,4.4,5.4,4.4,5.2
	c0-0.3,0.1-0.5,0.3-0.7c0.2-0.2,0.5-0.3,0.7-0.3h21.8c0.3,0,0.5,0.1,0.7,0.3c0.2,0.2,0.3,0.5,0.3,0.7c0,0.3-0.1,0.5-0.3,0.7
	c-0.2,0.2-0.5,0.3-0.7,0.3H5.5z"/>
</svg>
