<?xml version="1.0" encoding="utf-8"?>
<!-- Generator: Adobe Illustrator 24.1.2, SVG Export Plug-In . SVG Version: 6.00 Build 0)  -->
<svg version="1.1" id="Layer_1" xmlns="http://www.w3.org/2000/svg" xmlns:xlink="http://www.w3.org/1999/xlink" x="0px" y="0px"
	 viewBox="0 0 45 45" style="enable-background:new 0 0 45 45;" xml:space="preserve">
<style type="text/css">
	.st0{fill:#F16D7F;}
</style>
<path class="st0" d="M22.5,41.8L18.7,45l-2.6-4.4l-4.7,1.7l-1-5.1h-5l0.8-5.1l-4.7-1.8l2.5-4.5l-3.8-3.4l3.8-3.4l-2.5-4.4l4.7-1.8
	l-0.9-5h5.1l0.9-5.2L16,4.4L18.6,0l3.8,3.2L26.2,0l2.6,4.4l5-1.7l0.9,5.2h5L38.9,13l4.7,1.8l-2.5,4.5l3.8,3.4l-3.8,3.4l2.5,4.5
	l-4.7,1.8l0.8,5h-5l-0.9,4.8L29,40.6L26.4,45L22.5,41.8z M24,40l1.9,1.7l1.2-2.1L28,38l1.7,0.7l2.5,0.9l0.6-2.6l0.3-1.8h1.8h2.6
	l-0.3-2.6l-0.2-1.8l1.7-0.7l2.5-0.9L39.9,27L39,25.4l1.2-1.1l1.9-1.7l-2-1.8l-1.2-1.1l0.9-1.6l1.2-2.3l-2.7-0.9l-1.7-0.7l0.2-1.8
	l0.3-2.6h-2.6h-1.8L32.4,8l-0.6-2.6l-2.3,1l-1.7,0.7L27,5.5l-1.1-2L24,5.2l-1.5,1.1L21,5.2l-1.9-1.7l-1.2,2.1L17,7.2l-1.7-0.7
	l-2.5-0.9l-0.5,2.6L12.1,10h-1.8H7.7l0.3,2.6l0.2,1.8l-1.6,0.7L4.2,16l1.2,2.3l0.9,1.6L5.1,21l-1.8,1.7l1.9,1.7l1.2,1.1L5.6,27
	l-1.2,2.3l2.4,1l1.7,0.7l-0.2,1.8l-0.3,2.6h2.6h1.8l0.3,1.8l0.6,2.6l2.5-0.9l1.7-0.7l0.9,1.6l1.2,2.1l1.9-1.7l1.5-1.1L24,40z
	 M24.1,25.9c0-3.4,1.8-5.1,3.8-5.1c2.3,0,3.7,1.8,3.7,4.8c0,3.5-1.8,5.1-3.8,5.1C25.7,30.9,24.1,29.3,24.1,25.9z M25.7,25.9
	c0,2,0.8,3.7,2,3.7c1.5,0,2-1.6,2-3.7c0-2-0.6-3.6-2-3.6C26.4,22.2,25.7,23.9,25.7,25.9L25.7,25.9z M17.1,30.8l9.5-16.6H28
	l-9.5,16.6H17.1z M13.5,19.3c0-3.2,1.8-5.1,3.8-5.1c2.3,0,3.7,1.8,3.7,4.8c0,3.5-1.8,5.1-3.8,5.1C15.2,24.1,13.5,22.4,13.5,19.3
	L13.5,19.3z M15.2,19.2c0,2,0.8,3.7,2,3.7c1.5,0,2-1.6,2-3.7c0-2-0.6-3.6-2-3.6C16,15.5,15.2,17.1,15.2,19.2L15.2,19.2z"/>
</svg>
